<?xml version="1.0" standalone="no"?><!DOCTYPE svg PUBLIC "-//W3C//DTD SVG 1.1//EN" "http://www.w3.org/Graphics/SVG/1.1/DTD/svg11.dtd"><svg t="1520845090309" class="icon" style="" viewBox="0 0 1024 1024" version="1.1" xmlns="http://www.w3.org/2000/svg" p-id="6848" xmlns:xlink="http://www.w3.org/1999/xlink" width="32" height="32"><defs><style type="text/css"></style></defs><path d="M500.341984 920.882458l-0.295735 0c-7.888667-0.073678-15.406898-4.036943-20.554128-10.8143L61.705875 360.134197c-8.740058-11.480472-9.036817-28.442796-0.666172-40.293705L206.287785 113.298416c5.212722-7.443529 13.110599-11.740392 21.48022-11.740392l536.805966 0c7.305383 0 14.304797 3.296069 19.48989 9.185196l174.432775 199.134363c10.369162 11.81407 10.813277 30.812773 0.99977 43.237757L520.785595 910.475434C515.563664 917.105435 508.156974 920.882458 500.341984 920.882458zM118.405225 338.765517 500.666372 841.914942 901.055388 333.246827 753.139547 164.443259 240.989121 164.443259 118.405225 338.765517z" p-id="6849"></path><path d="M939.015955 365.244588 82.5189 365.244588c-15.22168 5.740748-27.553543-8.332782-27.553543-25.702382s12.332886-31.460526 27.553543-24.072255l856.497055 0c15.22168-7.388271 27.554566 6.702656 27.554566 24.072255S954.237635 370.985336 939.015955 365.244588z" p-id="6850"></path><path d="M500.341984 920.882458l-0.073678 0c-11.703553-0.036839-22.072715-8.407484-25.961278-20.961404L304.430012 352.597547l-100.659561-204.189496c-7.481392-15.110139-2.777253-34.294061 10.480702-42.812061 13.258978-8.518001 30.108738-3.184529 37.516452 11.962449l101.882412 206.541053c0.777713 1.592264 1.407046 3.25923 1.962701 4.963035l144.878668 466.856847 147.32437-467.042065c0.369414-1.14815 0.777713-2.333138 1.296529-3.444449L739.956294 118.890784c6.814196-15.554254 23.406083-21.757536 36.959773-13.998829 13.628392 7.813966 19.110243 26.702152 12.296047 42.219567l-90.105181 204.874087L526.229584 900.106272C522.303158 912.586514 511.933997 920.882458 500.341984 920.882458z" p-id="6851"></path></svg>